<?xml version="1.0" standalone="no"?>
<!DOCTYPE svg PUBLIC "-//W3C//DTD SVG 20010904//EN"
 "http://www.w3.org/TR/2001/REC-SVG-20010904/DTD/svg10.dtd">
<svg version="1.0" xmlns="http://www.w3.org/2000/svg"
 width="356.000000pt" height="107.000000pt" viewBox="0 0 356.000000 107.000000"
 preserveAspectRatio="xMidYMid meet">

<g transform="translate(0.000000,107.000000) scale(0.100000,-0.100000)"
fill="#000000" stroke="none">
<path d="M30 530 l0 -480 1740 0 1740 0 0 480 0 480 -1740 0 -1740 0 0 -480z
m3450 0 l0 -450 -1715 0 -1715 0 0 450 0 450 1715 0 1715 0 0 -450z"/>
<path d="M120 530 l0 -390 820 0 820 0 0 390 0 390 -820 0 -820 0 0 -390z
m704 136 c93 -39 112 -165 36 -230 -90 -76 -225 -13 -225 104 0 57 24 96 76
122 41 22 69 22 113 4z m355 -4 c68 -37 91 -129 48 -193 -67 -101 -214 -81
-245 34 -33 120 88 217 197 159z m-644 -17 c29 -28 31 -51 10 -82 -13 -18 -13
-22 0 -33 22 -18 19 -76 -5 -100 -16 -16 -33 -20 -95 -20 l-75 0 0 130 0 130
70 0 c62 0 74 -3 95 -25z m835 -30 c0 -52 1 -55 26 -55 40 0 60 16 78 65 13
32 23 45 37 45 25 0 24 -4 -11 -75 l-29 -60 35 -63 c35 -62 35 -64 13 -60 -16
2 -33 20 -54 58 -26 47 -35 55 -63 58 l-32 3 0 -60 c0 -54 -2 -61 -20 -61 -19
0 -20 7 -20 130 0 123 1 130 20 130 18 0 20 -7 20 -55z"/>
<path d="M703 616 c-24 -21 -28 -32 -28 -74 0 -60 21 -89 72 -98 74 -14 133
46 119 120 -14 72 -105 101 -163 52z"/>
<path d="M1053 625 c-57 -40 -50 -143 12 -172 71 -34 145 11 145 89 0 78 -94
127 -157 83z"/>
<path d="M410 600 l0 -40 43 0 c46 0 67 13 67 42 0 23 -30 38 -74 38 -35 0
-36 -1 -36 -40z"/>
<path d="M410 485 c0 -45 0 -45 36 -45 66 0 99 35 64 70 -13 13 -33 20 -60 20
l-40 0 0 -45z"/>
<path d="M2050 662 c-30 -14 -35 -23 -38 -55 -4 -49 15 -71 79 -92 48 -16 63
-37 34 -49 -18 -6 -45 2 -45 15 0 5 -18 9 -40 9 -36 0 -39 -2 -31 -22 14 -37
55 -61 104 -61 57 1 82 15 95 51 16 47 -7 88 -60 103 -49 14 -73 32 -64 48 10
16 46 13 52 -4 7 -17 74 -21 74 -4 0 24 -24 52 -55 65 -45 18 -63 18 -105 -4z"/>
<path d="M2575 661 c-54 -24 -80 -72 -73 -136 14 -118 162 -161 246 -71 59 65
39 170 -41 207 -52 23 -81 23 -132 0z m106 -69 c25 -21 30 -71 9 -96 -19 -24
-87 -21 -100 3 -18 34 -12 78 12 95 29 21 51 20 79 -2z"/>
<path d="M2240 635 c0 -34 1 -35 40 -35 l40 0 0 -95 0 -95 40 0 40 0 0 94 0
95 38 3 c34 3 37 6 40 36 l3 32 -120 0 -121 0 0 -35z"/>
<path d="M2830 540 l0 -130 35 0 c33 0 35 2 35 35 0 25 5 35 15 35 9 0 23 -16
32 -35 15 -32 20 -35 60 -35 l43 0 -22 45 c-21 44 -21 45 -3 65 31 34 26 96
-8 126 -25 21 -38 24 -108 24 l-79 0 0 -130z m139 46 c4 -22 -23 -46 -51 -46
-14 0 -18 8 -18 36 0 34 1 35 32 32 23 -2 34 -9 37 -22z"/>
<path d="M3090 540 l0 -130 95 0 95 0 0 30 c0 30 -1 30 -55 30 -48 0 -55 2
-55 20 0 17 7 20 45 20 43 0 45 1 45 30 0 29 -2 30 -45 30 -38 0 -45 3 -45 20
0 17 7 20 50 20 49 0 50 1 50 30 l0 30 -90 0 -90 0 0 -130z"/>
</g>
</svg>
